<svg width="18" height="18" viewBox="0 0 18 18" fill="none" xmlns="http://www.w3.org/2000/svg">
<path fill-rule="evenodd" clip-rule="evenodd" d="M1.5278 8.46962C6.17891 6.44321 9.28038 5.10728 10.8322 4.46182C15.263 2.6189 16.1837 2.29877 16.7838 2.2882C16.9157 2.28587 17.2108 2.31858 17.402 2.47369C17.5634 2.60466 17.6078 2.78159 17.6291 2.90576C17.6503 3.02994 17.6768 3.31282 17.6558 3.53385C17.4156 6.05666 16.3767 12.1788 15.8482 15.0044C15.6245 16.2 15.1841 16.6009 14.7578 16.6402C13.8313 16.7254 13.1277 16.0279 12.2304 15.4396C10.8261 14.5191 10.0328 13.9461 8.6698 13.0479C7.09458 12.0099 8.11573 11.4393 9.01345 10.5069C9.24838 10.2629 13.3306 6.54978 13.4097 6.21294C13.4195 6.17082 13.4287 6.01378 13.3354 5.93087C13.2421 5.84795 13.1044 5.8763 13.0051 5.89885C12.8642 5.93082 10.621 7.41353 6.27531 10.347C5.63857 10.7842 5.06183 10.9973 4.54509 10.9861C3.97542 10.9738 2.87961 10.664 2.065 10.3992C1.06583 10.0744 0.271718 9.90269 0.340867 9.35109C0.376885 9.06379 0.772528 8.76997 1.5278 8.46962Z" fill="#94A3B8"/>
</svg>
