<svg width="18" height="18" viewBox="0 0 18 18" fill="none" xmlns="http://www.w3.org/2000/svg">
<path d="M15.7927 5.38537C15.7997 5.54377 15.7997 5.69497 15.7997 5.85337C15.8066 10.6558 12.2783 16.1998 5.82582 16.1998C3.92274 16.1998 2.05438 15.631 0.449951 14.5654C0.727774 14.6014 1.0056 14.6158 1.28342 14.6158C2.86006 14.6158 4.39504 14.0686 5.63829 13.0534C4.13805 13.0246 2.81839 12.0094 2.35998 10.5262C2.88785 10.6342 3.4296 10.6126 3.94357 10.4614C2.31136 10.1302 1.13756 8.63978 1.13062 6.90457C1.13062 6.89017 1.13062 6.87577 1.13062 6.86137C1.61681 7.14218 2.16551 7.30058 2.72115 7.31498C1.18618 6.24937 0.706937 4.12537 1.63764 2.46216C3.42266 4.73737 6.04808 6.11257 8.86798 6.26377C8.58322 5.00377 8.97217 3.67896 9.88204 2.78616C11.292 1.41096 13.5146 1.48296 14.8481 2.94456C15.633 2.78616 16.39 2.48376 17.0777 2.05896C16.8137 2.90136 16.265 3.61416 15.5357 4.06777C16.2303 3.98137 16.911 3.78696 17.5499 3.49896C17.0777 4.23337 16.4803 4.86697 15.7927 5.38537Z" fill="#94A3B8"/>
</svg>
