<svg width="267" height="167" viewBox="0 0 267 167" fill="none" xmlns="http://www.w3.org/2000/svg">
<path d="M82.8725 188.058L82.5786 189.64L83.7173 188.504L272.04 0.510628H360.791L272.147 88.9498L271.86 89.2368L272.082 89.577L346.94 204.237L301.711 204.367C301.711 204.367 301.71 204.367 301.71 204.367C279.685 204.367 266.571 200.858 258.032 196.251C250.5 192.186 246.495 187.254 243.033 182.991C242.579 182.432 242.134 181.884 241.692 181.351L217.566 144.226L217.23 143.708L216.793 144.145L156.517 204.368L18.0697 204.499C21.9293 182.758 25.9324 160.971 29.9339 139.192C32.5363 125.028 35.138 110.868 37.6992 96.7263L43.5563 79.3801L43.9321 78.2671L42.8694 78.7678L0.50601 98.7289L0.898097 46.9868L72.5746 0.510628H117.709L82.8725 188.058ZM178.066 0.510675L178.072 0.51058C197.085 0.247911 218.324 4.81516 231.148 20.6711L174.014 77.6353L123.768 0.510628L178.066 0.510675Z" fill="url(#paint0_linear_1465_3451)" stroke="url(#paint1_linear_1465_3451)"/>
<defs>
<linearGradient id="paint0_linear_1465_3451" x1="181" y1="0" x2="181" y2="205" gradientUnits="userSpaceOnUse">
<stop stop-color="white" stop-opacity="0.08"/>
<stop offset="1" stop-color="white" stop-opacity="0"/>
</linearGradient>
<linearGradient id="paint1_linear_1465_3451" x1="181" y1="0" x2="181" y2="205" gradientUnits="userSpaceOnUse">
<stop stop-color="white" stop-opacity="0.1"/>
<stop offset="1" stop-color="white" stop-opacity="0.1"/>
</linearGradient>
</defs>
</svg>
